<?xml version="1.0" encoding="utf-8"?>
<!-- Generator: Adobe Illustrator 24.3.0, SVG Export Plug-In . SVG Version: 6.00 Build 0)  -->
<svg version="1.1" id="Layer_1" xmlns="http://www.w3.org/2000/svg" xmlns:xlink="http://www.w3.org/1999/xlink" x="0px" y="0px"
	 viewBox="0 0 63.9 54.6" style="enable-background:new 0 0 63.9 54.6;" xml:space="preserve">
<style type="text/css">
	.st0{fill:none;stroke:#000000;stroke-width:0.25;stroke-miterlimit:10;}
	.st1{fill:none;}
	.st2{opacity:0.14;fill:none;stroke:#000000;stroke-width:0.25;stroke-miterlimit:10;enable-background:new    ;}
	.st3{fill:#9B9B9B;}
	.st4{fill:none;stroke:#9FA1A4;stroke-width:2.0109;stroke-linecap:round;stroke-miterlimit:10;}
	.st5{fill:none;stroke:#9FA1A4;stroke-width:1.2;stroke-linecap:round;stroke-miterlimit:10;}
	.st6{opacity:0.42;fill:none;}
	.st7{opacity:0.5;fill:none;stroke:#000000;stroke-width:1.5845;stroke-linecap:round;stroke-linejoin:round;stroke-miterlimit:10;}
	.st8{fill:#A1A1A1;}
	.st9{fill:none;stroke:#9FA1A4;stroke-width:1.4117;stroke-linecap:round;stroke-miterlimit:10;}
</style>
<path class="st0" d="M716.1,68.4v-2.8c0-0.2,0.2-0.4,0.4-0.4h3.1l0.3,1.2h4.3c0.2,0,0.4,0.2,0.4,0.4v5.4c0,0.2-0.2,0.4-0.4,0.4h-7.7
	c-0.2,0-0.4-0.2-0.4-0.4v-4.6"/>
<path class="st0" d="M682.3,68.9v-3c0-0.3,0.2-0.5,0.5-0.5h3.4l0.3,1.8h4.7c0.3,0,0.5,0.2,0.5,0.4v4.5c0,0.2-0.2,0.4-0.5,0.4h-8.4
	c-0.3,0-0.5-0.2-0.5-0.4v-3.9"/>
<path class="st0" d="M665.1,68.2v-2.6c0-0.2,0.2-0.4,0.4-0.4h3l0.2,1.5h4.1c0.2,0,0.4,0.2,0.4,0.4v5.1c0,0.2-0.2,0.4-0.4,0.4h-7.3
	c-0.2,0-0.4-0.2-0.4-0.4v-4.4"/>
<path class="st0" d="M746.3,69.2v-3c0-0.3,0.2-0.5,0.5-0.5h3.4l0.3,1.8h4.7c0.3,0,0.5,0.2,0.5,0.5v5.9c0,0.3-0.2,0.5-0.5,0.5h-8.4
	c-0.3,0-0.5-0.2-0.5-0.5v-5"/>
<path class="st0" d="M698.3,68.4v-2.8c0-0.2,0.2-0.4,0.4-0.4h2.2l1.2,1.2h4.3c0.2,0,0.4,0.2,0.4,0.4v5.4c0,0.2-0.2,0.4-0.4,0.4h-7.7
	c-0.2,0-0.4-0.2-0.4-0.4v-4.6"/>
<line class="st1" x1="719.9" y1="66.4" x2="716.1" y2="66.4"/>
<path class="st0" d="M731.2,69.5v-2.8c0-0.2,0.2-0.5,0.5-0.5h3.2l0.3,1.2h4.3c0.2,0,0.5,0.2,0.5,0.5v5.4c0,0.2-0.2,0.5-0.5,0.5h-7.8
	c-0.2,0-0.5-0.2-0.5-0.5v-4.6"/>
<line class="st2" x1="735.1" y1="67.4" x2="731.2" y2="67.4"/>
<g>
	<g>
		<path class="st3" d="M93.5,90c0.1,0,0.1,0,0.2,0c0.7,0,1.4-0.2,1.9,0.1c0.7,0.4,0.3,1.2,0.5,1.8c0.3,1.1,0.9,2,1.8,2.8
			c2.9,2.2,6.1,2.6,9.6,1.6c2-0.6,3.3-1.9,3.5-4.1c0.3-2.5-0.7-4.4-2.8-5.7c-1.7-1-3.6-1.5-5.5-2c-2.5-0.7-4.9-1.6-7-3.1
			c-5.8-4.2-4.7-11.6,0.6-14.9c4.4-2.8,11.8-2.6,15.9,1.2c2,1.8,3.2,4,3.4,6.8c0,0.6-0.1,1-0.8,0.9c-1.1,0-2.1,0-3.2,0
			c-0.5,0-0.8-0.2-0.8-0.7c0-3.1-2.8-6.2-7-6.2c-1.2,0-2.5,0-3.6,0.5c-1.9,0.8-3,2.2-3.3,4.2c-0.3,2.2,0.5,3.9,2.3,5
			c1.9,1.2,4.1,1.9,6.3,2.5c2.4,0.7,4.7,1.6,6.7,3.2c3.8,3,4.7,8.7,1.9,12.4c-1.6,2.2-3.9,3.5-6.5,4c-5,1.1-9.7,0.3-13.8-3
			c-2-1.7-3-3.8-3.1-6.4c0-0.6,0.2-0.9,0.8-0.9C92.3,90,92.9,90,93.5,90C93.5,90,93.5,90,93.5,90z"/>
	</g>
	<line class="st4" x1="103.8" y1="60.9" x2="103.8" y2="103.6"/>
	<circle class="st4" cx="103.8" cy="83.6" r="25.6"/>
</g>
<g>
	<line class="st5" x1="142.6" y1="27.9" x2="142.9" y2="28.5"/>
	<path class="st5" d="M130.3,28.2"/>
	<path class="st5" d="M142.6,27.9"/>
	<line class="st5" x1="142.6" y1="27.9" x2="142.9" y2="28.5"/>
	<g>
		<line class="st5" x1="141" y1="49.4" x2="140.8" y2="45.5"/>
		<g>
			<line class="st5" x1="136.6" y1="53.5" x2="134" y2="50.4"/>
			<line class="st5" x1="136.1" y1="29.5" x2="136.8" y2="53.3"/>
			<line class="st5" x1="142.9" y1="28.5" x2="138.5" y2="28.7"/>
			<line class="st5" x1="138.5" y1="31.6" x2="138.5" y2="28.7"/>
			<line class="st5" x1="139.7" y1="32.6" x2="138.5" y2="31.6"/>
			<line class="st5" x1="139.7" y1="35.8" x2="139.7" y2="32.6"/>
			<line class="st5" x1="138.8" y1="37.3" x2="139.7" y2="35.8"/>
			<line class="st5" x1="141" y1="40" x2="138.8" y2="37.3"/>
			<line class="st5" x1="139.3" y1="44" x2="141" y2="40"/>
			<line class="st5" x1="139.3" y1="44" x2="140.8" y2="45.5"/>
			<line class="st5" x1="136.6" y1="53.6" x2="141" y2="49.4"/>
			<line class="st5" x1="136.6" y1="53.6" x2="133.9" y2="50.4"/>
			<line class="st5" x1="133.9" y1="50.4" x2="132.9" y2="29.7"/>
			<line class="st5" x1="132.9" y1="29.7" x2="129.1" y2="29.8"/>
		</g>
	</g>
	<g>
		<line class="st5" x1="129.1" y1="29.8" x2="130.3" y2="28.2"/>
		<g>
			<line class="st5" x1="142.6" y1="27.9" x2="141.7" y2="26"/>
			<line class="st5" x1="131.4" y1="26.6" x2="130.3" y2="28.2"/>
			<path class="st5" d="M131.4,26.6c-1.1-0.5-2.2-1.2-3.1-2.1c-4.7-4.4-5.1-12.1-0.9-17c4.2-4.9,11.5-5.3,16.2-0.9s5.1,12.1,0.9,17
				c-0.8,1-1.8,1.8-2.8,2.4"/>
			<path class="st5" d="M133.5,11.7c1-1.2,2.8-1.3,3.9-0.2c1.1,1.1,1.2,2.9,0.2,4.1c-1,1.2-2.8,1.3-3.9,0.2
				C132.6,14.7,132.5,12.9,133.5,11.7z"/>
		</g>
	</g>
	<path class="st5" d="M130.3,28.2"/>
	<path class="st5" d="M142.6,27.9"/>
	<path class="st5" d="M131.6,35.6"/>
	<g>
		<path class="st5" d="M127.7,23.8c-3.7,1-7.8,0-10.6-3c-2.9-3-3.8-7.3-2.8-11.2"/>
		<path class="st5" d="M114.3,9.6c0.5-1.9,1.4-3.7,2.9-5.2s3.1-2.5,5-3"/>
		<path class="st5" d="M122.1,1.4c3.7-1,7.8,0,10.6,3c2.5,2.7,3.5,6.3,3.1,9.7"/>
	</g>
</g>
<path class="st6" d="M-49.7,53.4c0.1,0,0.1,0.1,0.2,0.1C-49.6,53.5-49.7,53.5-49.7,53.4z"/>
<g>
	<path class="st7" d="M180.9,82c4.8-8.9,10-17.6,14.4-26.6C200.6,45,195,31.9,183.5,30c-11.1-1.9-19.2,6.3-19.7,17.4
		c-0.1,3.5,1,6.7,2.6,9.7c4.2,7.8,8.5,15.6,12.8,23.3c0.4,0.7,1,1.2,1.5,1.9"/>
	<path class="st7" d="M180.3,37.2c-3.9,0.8-6.6,2.7-7.6,7.1c-1.1,4.4,2.5,9.4,6.5,10.2c4.3,0.8,8.8-2.8,9.4-7
		c0.6-4.5-1.5-9.6-8.1-10.4"/>
	<path class="st6" d="M170.9,68.2c0.1,0.1,0.1,0.1,0.2,0.1C171,68.3,170.9,68.2,170.9,68.2z"/>
</g>
<g>
	<path class="st8" d="M56.3,30.9c-1.6-2.9-3.3-5.7-5-8.6c-0.2-0.3-0.5-0.5-0.8-0.6L48,22.6c-0.1,0-0.2,0.1-0.3,0.1
		c-0.4,0.2-0.9,0.3-1.3,0.5c-0.2,0.1-0.4,0.2-0.6,0.2c-0.8,0.3-1.6,0.6-2.3,0.9c-2.7,1-5.3,2-8,2.9c-0.9,0.3-1.8,0.6-2.7,1
		c-0.1,0-0.1,0-0.2,0.1c-0.1,0-0.2,0.1-0.3,0.1c0,0,0,0,0,0l-0.4,0.1l-18.6-6.7c-0.1,0-0.1,0.1-0.2,0.1c-0.2,0.2-0.4,0.4-0.6,0.6
		c0,0.1-0.1,0.1-0.1,0.2c-1.6,2.7-3.1,5.4-4.7,8.1c-0.3,0.5-0.4,0.8-0.4,1c0,0.1,0,0.1,0,0.2c0,0.1,0.1,0.2,0.2,0.2
		c0,0,0.1,0.1,0.1,0.1c0.2,0.1,0.4,0.2,0.7,0.3c1.2,0.5,2.3,0.9,3.5,1.3c0.1,0,0.1,0.1,0.2,0.1c0.1,0,0.1,0.1,0.2,0.1
		c0.1,0,0.1,0.1,0.2,0.2c0.1,0.2,0.2,0.4,0.2,0.7c0,2.6,0,5.2,0,7.8c0,0.9,0,1.7,0,2.6c0,0.4,0,0.7,0.2,0.9c0.1,0.1,0.1,0.2,0.2,0.3
		c0,0,0.1,0.1,0.1,0.1c0.2,0.1,0.3,0.2,0.6,0.3c2.9,1,5.7,2,8.6,3.1c2.8,1,5.7,2.1,8.5,3.1c0.1,0,0.1,0.1,0.2,0.1
		c0.1,0,0.1,0.1,0.2,0.1c0.1,0.1,0.3,0.1,0.4,0.2h0.9c2.5-0.9,5.1-1.9,7.6-2.8c3.5-1.3,7-2.5,10.5-3.8c0.7-0.3,1-0.7,1-1.4
		c0-3.4,0-6.8,0-10.2c0-1,0.3-1.4,1.2-1.7c1-0.3,2-0.7,3-1.1C56.6,32.1,56.7,31.7,56.3,30.9z M9.2,31.2L9.2,31.2L9.2,31.2
		c0.3-0.5,0.5-0.9,0.8-1.4c0.4-0.7,0.8-1.3,1.1-2c0.2-0.3,0.4-0.7,0.6-1c0.6-1.1,1.3-2.3,2-3.4c0.7,0.3,1.4,0.5,2.1,0.8
		c2.1,0.8,4.3,1.6,6.4,2.3c1.4,0.5,2.9,1,4.3,1.6c1.4,0.5,2.9,1.1,4.4,1.6h0h0c-0.4,0.7-0.8,1.4-1.2,2.1c-0.6,1-1.2,2-1.8,3
		c-0.6,1-1.2,2-1.8,3C20.6,35.6,15,33.4,9.2,31.2z M31.3,51.6c-1.8-0.7-3.6-1.3-5.3-1.9c-3.7-1.3-7.3-2.7-11-3.9
		c-0.7-0.2-0.8-0.5-0.8-1.2c0-3.2,0-6.4,0-9.8c0.4,0.1,0.7,0.2,1,0.4c3.5,1.4,7.1,2.7,10.6,4.1c0.9,0.4,1.4,0.2,1.9-0.7
		c1.1-2.1,2.4-4.1,3.7-6.4V51.6z M49.4,45.7c-5.4,1.9-10.8,3.9-16.2,5.8c-0.1,0-0.1,0-0.3,0V32.7c0.1,0,0.1,0,0.2-0.1
		c1,1.7,1.9,3.5,2.9,5.2c1.1,1.9,0.7,2.1,3.1,1.1c3.6-1.4,7.3-2.8,11-4.3c0,0.3,0.1,0.5,0.1,0.7c0,3.1,0,6.2,0,9.4
		C50.1,45.3,49.9,45.5,49.4,45.7z M37.7,37.8c-1.5-2.7-3-5.4-4.5-8.1c5.7-2.1,11.4-4.2,17-6.2c1.5,2.6,2.9,5.1,4.5,7.8
		C49,33.4,43.4,35.6,37.7,37.8z"/>
	<line class="st9" x1="13.4" y1="22.5" x2="31.8" y2="16.7"/>
	<line class="st9" x1="50.5" y1="22.4" x2="31.8" y2="16.7"/>
	<path class="st9" d="M32,14.3c0,0-2-9.2,5.2-13.2"/>
	<path class="st9" d="M29.6,15.1c0,0,1.2-10-6-14"/>
</g>
</svg>
