<?xml version="1.0" encoding="utf-8"?>
<!-- Generator: Adobe Illustrator 24.3.0, SVG Export Plug-In . SVG Version: 6.00 Build 0)  -->
<svg version="1.1" id="Layer_1" xmlns="http://www.w3.org/2000/svg" xmlns:xlink="http://www.w3.org/1999/xlink" x="0px" y="0px"
	 viewBox="0 0 63.9 54.6" style="enable-background:new 0 0 63.9 54.6;" xml:space="preserve">
<style type="text/css">
	.st0{fill:none;stroke:#000000;stroke-width:0.25;stroke-miterlimit:10;}
	.st1{fill:none;}
	.st2{opacity:0.14;fill:none;stroke:#000000;stroke-width:0.25;stroke-miterlimit:10;enable-background:new    ;}
	.st3{fill:#9B9B9B;}
	.st4{fill:none;stroke:#9FA1A4;stroke-width:2.0109;stroke-linecap:round;stroke-miterlimit:10;}
</style>
<path class="st0" d="M716.1,68.4v-2.8c0-0.2,0.2-0.4,0.4-0.4h3.1l0.3,1.2h4.3c0.2,0,0.4,0.2,0.4,0.4v5.4c0,0.2-0.2,0.4-0.4,0.4h-7.7
	c-0.2,0-0.4-0.2-0.4-0.4v-4.6"/>
<path class="st0" d="M682.3,68.9v-3c0-0.3,0.2-0.5,0.5-0.5h3.4l0.3,1.8h4.7c0.3,0,0.5,0.2,0.5,0.4v4.5c0,0.2-0.2,0.4-0.5,0.4h-8.4
	c-0.3,0-0.5-0.2-0.5-0.4v-3.9"/>
<path class="st0" d="M665.1,68.2v-2.6c0-0.2,0.2-0.4,0.4-0.4h3l0.2,1.5h4.1c0.2,0,0.4,0.2,0.4,0.4v5.1c0,0.2-0.2,0.4-0.4,0.4h-7.3
	c-0.2,0-0.4-0.2-0.4-0.4v-4.4"/>
<path class="st0" d="M746.3,69.2v-3c0-0.3,0.2-0.5,0.5-0.5h3.4l0.3,1.8h4.7c0.3,0,0.5,0.2,0.5,0.5v5.9c0,0.3-0.2,0.5-0.5,0.5h-8.4
	c-0.3,0-0.5-0.2-0.5-0.5v-5"/>
<path class="st0" d="M698.3,68.4v-2.8c0-0.2,0.2-0.4,0.4-0.4h2.2l1.2,1.2h4.3c0.2,0,0.4,0.2,0.4,0.4v5.4c0,0.2-0.2,0.4-0.4,0.4h-7.7
	c-0.2,0-0.4-0.2-0.4-0.4v-4.6"/>
<line class="st1" x1="719.9" y1="66.4" x2="716.1" y2="66.4"/>
<path class="st0" d="M731.2,69.5v-2.8c0-0.2,0.2-0.5,0.5-0.5h3.2l0.3,1.2h4.3c0.2,0,0.5,0.2,0.5,0.5v5.4c0,0.2-0.2,0.5-0.5,0.5h-7.8
	c-0.2,0-0.5-0.2-0.5-0.5v-4.6"/>
<line class="st2" x1="735.1" y1="67.4" x2="731.2" y2="67.4"/>
<g>
	<g>
		<path class="st3" d="M21.7,33.6c0.1,0,0.1,0,0.2,0c0.7,0,1.4-0.2,1.9,0.1c0.7,0.4,0.3,1.2,0.5,1.8c0.3,1.1,0.9,2,1.8,2.8
			c2.9,2.2,6.1,2.6,9.6,1.6c2-0.6,3.3-1.9,3.5-4.1c0.3-2.5-0.7-4.4-2.8-5.7c-1.7-1-3.6-1.5-5.5-2c-2.5-0.7-4.9-1.6-7-3.1
			c-5.8-4.2-4.7-11.6,0.6-14.9c4.4-2.8,11.8-2.6,15.9,1.2c2,1.8,3.2,4,3.4,6.8c0,0.6-0.1,1-0.8,0.9c-1.1,0-2.1,0-3.2,0
			c-0.5,0-0.8-0.2-0.8-0.7c0-3.1-2.8-6.2-7-6.2c-1.2,0-2.5,0-3.6,0.5c-1.9,0.8-3,2.2-3.3,4.2c-0.3,2.2,0.5,3.9,2.3,5
			c1.9,1.2,4.1,1.9,6.3,2.5c2.4,0.7,4.7,1.6,6.7,3.2c3.8,3,4.7,8.7,1.9,12.4c-1.6,2.2-3.9,3.5-6.5,4c-5,1.1-9.7,0.3-13.8-3
			c-2-1.7-3-3.8-3.1-6.4c0-0.6,0.2-0.9,0.8-0.9C20.5,33.7,21.1,33.7,21.7,33.6C21.7,33.7,21.7,33.6,21.7,33.6z"/>
	</g>
	<line class="st4" x1="31.9" y1="4.6" x2="31.9" y2="47.3"/>
	<circle class="st4" cx="31.9" cy="27.3" r="25.6"/>
</g>
</svg>
