<?xml version="1.0" encoding="utf-8"?>
<!-- Generator: Adobe Illustrator 24.3.0, SVG Export Plug-In . SVG Version: 6.00 Build 0)  -->
<svg version="1.1" id="Layer_1" xmlns="http://www.w3.org/2000/svg" xmlns:xlink="http://www.w3.org/1999/xlink" x="0px" y="0px"
	 viewBox="0 0 63.9 54.6" style="enable-background:new 0 0 63.9 54.6;" xml:space="preserve">
<style type="text/css">
	.st0{fill:none;stroke:#000000;stroke-width:0.25;stroke-miterlimit:10;}
	.st1{fill:none;}
	.st2{opacity:0.14;fill:none;stroke:#000000;stroke-width:0.25;stroke-miterlimit:10;enable-background:new    ;}
	.st3{fill:#9B9B9B;}
	.st4{fill:none;stroke:#9FA1A4;stroke-width:2.0109;stroke-linecap:round;stroke-miterlimit:10;}
	.st5{fill:none;stroke:#9FA1A4;stroke-width:1.2;stroke-linecap:round;stroke-miterlimit:10;}
</style>
<path class="st0" d="M716.1,68.4v-2.8c0-0.2,0.2-0.4,0.4-0.4h3.1l0.3,1.2h4.3c0.2,0,0.4,0.2,0.4,0.4v5.4c0,0.2-0.2,0.4-0.4,0.4h-7.7
	c-0.2,0-0.4-0.2-0.4-0.4v-4.6"/>
<path class="st0" d="M682.3,68.9v-3c0-0.3,0.2-0.5,0.5-0.5h3.4l0.3,1.8h4.7c0.3,0,0.5,0.2,0.5,0.4v4.5c0,0.2-0.2,0.4-0.5,0.4h-8.4
	c-0.3,0-0.5-0.2-0.5-0.4v-3.9"/>
<path class="st0" d="M665.1,68.2v-2.6c0-0.2,0.2-0.4,0.4-0.4h3l0.2,1.5h4.1c0.2,0,0.4,0.2,0.4,0.4v5.1c0,0.2-0.2,0.4-0.4,0.4h-7.3
	c-0.2,0-0.4-0.2-0.4-0.4v-4.4"/>
<path class="st0" d="M746.3,69.2v-3c0-0.3,0.2-0.5,0.5-0.5h3.4l0.3,1.8h4.7c0.3,0,0.5,0.2,0.5,0.5v5.9c0,0.3-0.2,0.5-0.5,0.5h-8.4
	c-0.3,0-0.5-0.2-0.5-0.5v-5"/>
<path class="st0" d="M698.3,68.4v-2.8c0-0.2,0.2-0.4,0.4-0.4h2.2l1.2,1.2h4.3c0.2,0,0.4,0.2,0.4,0.4v5.4c0,0.2-0.2,0.4-0.4,0.4h-7.7
	c-0.2,0-0.4-0.2-0.4-0.4v-4.6"/>
<line class="st1" x1="719.9" y1="66.4" x2="716.1" y2="66.4"/>
<path class="st0" d="M731.2,69.5v-2.8c0-0.2,0.2-0.5,0.5-0.5h3.2l0.3,1.2h4.3c0.2,0,0.5,0.2,0.5,0.5v5.4c0,0.2-0.2,0.5-0.5,0.5h-7.8
	c-0.2,0-0.5-0.2-0.5-0.5v-4.6"/>
<line class="st2" x1="735.1" y1="67.4" x2="731.2" y2="67.4"/>
<g>
	<g>
		<path class="st3" d="M93.5,90c0.1,0,0.1,0,0.2,0c0.7,0,1.4-0.2,1.9,0.1c0.7,0.4,0.3,1.2,0.5,1.8c0.3,1.1,0.9,2,1.8,2.8
			c2.9,2.2,6.1,2.6,9.6,1.6c2-0.6,3.3-1.9,3.5-4.1c0.3-2.5-0.7-4.4-2.8-5.7c-1.7-1-3.6-1.5-5.5-2c-2.5-0.7-4.9-1.6-7-3.1
			c-5.8-4.2-4.7-11.6,0.6-14.9c4.4-2.8,11.8-2.6,15.9,1.2c2,1.8,3.2,4,3.4,6.8c0,0.6-0.1,1-0.8,0.9c-1.1,0-2.1,0-3.2,0
			c-0.5,0-0.8-0.2-0.8-0.7c0-3.1-2.8-6.2-7-6.2c-1.2,0-2.5,0-3.6,0.5c-1.9,0.8-3,2.2-3.3,4.2c-0.3,2.2,0.5,3.9,2.3,5
			c1.9,1.2,4.1,1.9,6.3,2.5c2.4,0.7,4.7,1.6,6.7,3.2c3.8,3,4.7,8.7,1.9,12.4c-1.6,2.2-3.9,3.5-6.5,4c-5,1.1-9.7,0.3-13.8-3
			c-2-1.7-3-3.8-3.1-6.4c0-0.6,0.2-0.9,0.8-0.9C92.3,90,92.9,90,93.5,90C93.5,90,93.5,90,93.5,90z"/>
	</g>
	<line class="st4" x1="103.8" y1="60.9" x2="103.8" y2="103.6"/>
	<circle class="st4" cx="103.8" cy="83.6" r="25.6"/>
</g>
<g>
	<line class="st5" x1="43.9" y1="27.9" x2="44.2" y2="28.5"/>
	<path class="st5" d="M31.6,28.2"/>
	<path class="st5" d="M43.9,27.9"/>
	<line class="st5" x1="43.9" y1="27.9" x2="44.2" y2="28.5"/>
	<g>
		<line class="st5" x1="42.3" y1="49.4" x2="42.1" y2="45.5"/>
		<g>
			<line class="st5" x1="37.9" y1="53.5" x2="35.3" y2="50.4"/>
			<line class="st5" x1="37.4" y1="29.5" x2="38.1" y2="53.3"/>
			<line class="st5" x1="44.2" y1="28.5" x2="39.8" y2="28.7"/>
			<line class="st5" x1="39.8" y1="31.6" x2="39.8" y2="28.7"/>
			<line class="st5" x1="41" y1="32.6" x2="39.8" y2="31.6"/>
			<line class="st5" x1="41" y1="35.8" x2="41" y2="32.6"/>
			<line class="st5" x1="40.1" y1="37.3" x2="41" y2="35.8"/>
			<line class="st5" x1="42.3" y1="40" x2="40.1" y2="37.3"/>
			<line class="st5" x1="40.6" y1="44" x2="42.3" y2="40"/>
			<line class="st5" x1="40.6" y1="44" x2="42.1" y2="45.5"/>
			<line class="st5" x1="37.9" y1="53.6" x2="42.3" y2="49.4"/>
			<line class="st5" x1="37.9" y1="53.6" x2="35.2" y2="50.4"/>
			<line class="st5" x1="35.2" y1="50.4" x2="34.2" y2="29.7"/>
			<line class="st5" x1="34.2" y1="29.7" x2="30.4" y2="29.8"/>
		</g>
	</g>
	<g>
		<line class="st5" x1="30.4" y1="29.8" x2="31.6" y2="28.2"/>
		<g>
			<line class="st5" x1="43.9" y1="27.9" x2="43" y2="26"/>
			<line class="st5" x1="32.7" y1="26.6" x2="31.6" y2="28.2"/>
			<path class="st5" d="M32.7,26.6c-1.1-0.5-2.2-1.2-3.1-2.1c-4.7-4.4-5.1-12.1-0.9-17s11.5-5.3,16.2-0.9s5.1,12.1,0.9,17
				c-0.8,1-1.8,1.8-2.8,2.4"/>
			<path class="st5" d="M34.8,11.7c1-1.2,2.8-1.3,3.9-0.2c1.1,1.1,1.2,2.9,0.2,4.1c-1,1.2-2.8,1.3-3.9,0.2S33.8,12.9,34.8,11.7z"/>
		</g>
	</g>
	<path class="st5" d="M31.6,28.2"/>
	<path class="st5" d="M43.9,27.9"/>
	<path class="st5" d="M32.9,35.6"/>
	<g>
		<path class="st5" d="M29,23.8c-3.7,1-7.8,0-10.6-3c-2.9-3-3.8-7.3-2.8-11.2"/>
		<path class="st5" d="M15.5,9.6C16,7.7,17,5.9,18.4,4.4c1.4-1.5,3.1-2.5,5-3"/>
		<path class="st5" d="M23.4,1.4c3.7-1,7.8,0,10.6,3c2.5,2.7,3.5,6.3,3.1,9.7"/>
	</g>
</g>
</svg>
