<?xml version="1.0" encoding="utf-8"?>
<!-- Generator: Adobe Illustrator 24.3.0, SVG Export Plug-In . SVG Version: 6.00 Build 0)  -->
<svg version="1.1" id="Layer_1" xmlns="http://www.w3.org/2000/svg" xmlns:xlink="http://www.w3.org/1999/xlink" x="0px" y="0px"
	 viewBox="0 0 63.9 54.6" style="enable-background:new 0 0 63.9 54.6;" xml:space="preserve">
<style type="text/css">
	.st0{fill:none;stroke:#000000;stroke-width:0.25;stroke-miterlimit:10;}
	.st1{fill:none;}
	.st2{opacity:0.14;fill:none;stroke:#000000;stroke-width:0.25;stroke-miterlimit:10;enable-background:new    ;}
	.st3{opacity:0.53;}
</style>
<path class="st0" d="M716.1,68.4v-2.8c0-0.2,0.2-0.4,0.4-0.4h3.1l0.3,1.2h4.3c0.2,0,0.4,0.2,0.4,0.4v5.4c0,0.2-0.2,0.4-0.4,0.4h-7.7
	c-0.2,0-0.4-0.2-0.4-0.4v-4.6"/>
<path class="st0" d="M682.3,68.9v-3c0-0.3,0.2-0.5,0.5-0.5h3.4l0.3,1.8h4.7c0.3,0,0.5,0.2,0.5,0.4v4.5c0,0.2-0.2,0.4-0.5,0.4h-8.4
	c-0.3,0-0.5-0.2-0.5-0.4v-3.9"/>
<path class="st0" d="M665.1,68.2v-2.6c0-0.2,0.2-0.4,0.4-0.4h3l0.2,1.5h4.1c0.2,0,0.4,0.2,0.4,0.4v5.1c0,0.2-0.2,0.4-0.4,0.4h-7.3
	c-0.2,0-0.4-0.2-0.4-0.4v-4.4"/>
<path class="st0" d="M746.3,69.2v-3c0-0.3,0.2-0.5,0.5-0.5h3.4l0.3,1.8h4.7c0.3,0,0.5,0.2,0.5,0.5v5.9c0,0.3-0.2,0.5-0.5,0.5h-8.4
	c-0.3,0-0.5-0.2-0.5-0.5v-5"/>
<path class="st0" d="M698.3,68.4v-2.8c0-0.2,0.2-0.4,0.4-0.4h2.2l1.2,1.2h4.3c0.2,0,0.4,0.2,0.4,0.4v5.4c0,0.2-0.2,0.4-0.4,0.4h-7.7
	c-0.2,0-0.4-0.2-0.4-0.4v-4.6"/>
<line class="st1" x1="719.9" y1="66.4" x2="716.1" y2="66.4"/>
<path class="st0" d="M731.2,69.5v-2.8c0-0.2,0.2-0.5,0.5-0.5h3.2l0.3,1.2h4.3c0.2,0,0.5,0.2,0.5,0.5v5.4c0,0.2-0.2,0.5-0.5,0.5h-7.8
	c-0.2,0-0.5-0.2-0.5-0.5v-4.6"/>
<line class="st2" x1="735.1" y1="67.4" x2="731.2" y2="67.4"/>
<g>
	<path class="st3" d="M33,40c-2.2,1.6-4.1,3-6.1,4.5c-0.5,0.3-1,0.9-1.7,0.4c-0.7-0.4-0.5-1.1-0.4-1.7c1.3-8.8,2.6-17.6,4-26.5
		c0.1-0.5,0.1-1.1,0.7-1.3c0.6-0.2,1,0.2,1.4,0.5c6.5,6.2,13,12.4,19.5,18.6c0.4,0.4,0.8,0.8,0.6,1.5c-0.2,0.7-0.9,0.7-1.5,0.7
		c-2.1,0-4.2,0.1-6.3,0.1c-1.1,0-1.3,0.3-0.9,1.3c1.4,3.8,2.6,7.6,3.9,11.4c0.4,1.2,0.2,1.9-1.1,2.3c-1.9,0.6-3.8,1.3-5.7,2
		c-1.1,0.4-1.7,0.1-2-1C36,48.6,34.5,44.4,33,40z M27,41.9c1.9-1.4,3.4-2.5,4.9-3.6c1.8-1.3,2.1-1.2,2.9,0.9
		c1.3,3.9,2.7,7.7,3.9,11.6c0.3,0.9,0.6,1,1.4,0.7c1-0.4,2-0.8,3-1c0.9-0.2,1.1-0.6,0.8-1.5c-1.4-3.9-2.7-7.8-4-11.7
		c-0.7-1.9-0.5-2.2,1.5-2.3c2,0,4,0,5.9,0c0-0.2,0.1-0.3,0.1-0.5c-5.6-5.3-11.1-10.6-16.9-16.1C29.4,26.3,28.2,33.9,27,41.9z"/>
	<path class="st3" d="M30.2,0.6c11.1,0,19.5,10.5,16.9,21.2c-0.1,0.2-0.1,0.4-0.2,0.7c-0.3,0.9-0.5,1.9-1.8,1.5
		c-1.1-0.4-0.7-1.2-0.5-2.1C46.9,11.7,39.9,2.8,29.7,3C23.6,3.2,18.1,7.2,16,13.1c-2,5.7-0.2,12.3,4.4,16.3c0.8,0.7,2.7,1.3,1.5,2.7
		c-1.1,1.3-2.2-0.2-3-0.9c-5.5-4.8-7.5-12.3-5-19.1C16.4,5.1,22.8,0.7,30.2,0.6z"/>
</g>
</svg>
