<?xml version="1.0" encoding="utf-8"?>
<!-- Generator: Adobe Illustrator 24.3.0, SVG Export Plug-In . SVG Version: 6.00 Build 0)  -->
<svg version="1.1" id="Layer_1" xmlns="http://www.w3.org/2000/svg" xmlns:xlink="http://www.w3.org/1999/xlink" x="0px" y="0px"
	 viewBox="0 0 63.9 54.6" style="enable-background:new 0 0 63.9 54.6;" xml:space="preserve">
<style type="text/css">
	.st0{fill:none;stroke:#000000;stroke-width:0.25;stroke-miterlimit:10;}
	.st1{fill:none;}
	.st2{opacity:0.14;fill:none;stroke:#000000;stroke-width:0.25;stroke-miterlimit:10;enable-background:new    ;}
	.st3{fill:#F5BF18;}
</style>
<path class="st0" d="M716.1,68.4v-2.8c0-0.2,0.2-0.4,0.4-0.4h3.1l0.3,1.2h4.3c0.2,0,0.4,0.2,0.4,0.4v5.4c0,0.2-0.2,0.4-0.4,0.4h-7.7
	c-0.2,0-0.4-0.2-0.4-0.4v-4.6"/>
<path class="st0" d="M682.3,68.9v-3c0-0.3,0.2-0.5,0.5-0.5h3.4l0.3,1.8h4.7c0.3,0,0.5,0.2,0.5,0.4v4.5c0,0.2-0.2,0.4-0.5,0.4h-8.4
	c-0.3,0-0.5-0.2-0.5-0.4v-3.9"/>
<path class="st0" d="M665.1,68.2v-2.6c0-0.2,0.2-0.4,0.4-0.4h3l0.2,1.5h4.1c0.2,0,0.4,0.2,0.4,0.4v5.1c0,0.2-0.2,0.4-0.4,0.4h-7.3
	c-0.2,0-0.4-0.2-0.4-0.4v-4.4"/>
<path class="st0" d="M746.3,69.2v-3c0-0.3,0.2-0.5,0.5-0.5h3.4l0.3,1.8h4.7c0.3,0,0.5,0.2,0.5,0.5v5.9c0,0.3-0.2,0.5-0.5,0.5h-8.4
	c-0.3,0-0.5-0.2-0.5-0.5v-5"/>
<path class="st0" d="M698.3,68.4v-2.8c0-0.2,0.2-0.4,0.4-0.4h2.2l1.2,1.2h4.3c0.2,0,0.4,0.2,0.4,0.4v5.4c0,0.2-0.2,0.4-0.4,0.4h-7.7
	c-0.2,0-0.4-0.2-0.4-0.4v-4.6"/>
<line class="st1" x1="719.9" y1="66.4" x2="716.1" y2="66.4"/>
<path class="st0" d="M731.2,69.5v-2.8c0-0.2,0.2-0.5,0.5-0.5h3.2l0.3,1.2h4.3c0.2,0,0.5,0.2,0.5,0.5v5.4c0,0.2-0.2,0.5-0.5,0.5h-7.8
	c-0.2,0-0.5-0.2-0.5-0.5v-4.6"/>
<line class="st2" x1="735.1" y1="67.4" x2="731.2" y2="67.4"/>
<g>
	<path class="st3" d="M55.5,39.7c0,4.1,0,8.2,0,12.2c0,1.3-0.5,1.8-1.8,1.8c-5.1,0-10.2,0-15.3,0c-1.4,0-1.9-0.5-1.9-1.9
		c0.1-3.4-0.1-6.8,0.1-10.3c0.1-1.5-0.5-1.9-1.9-1.8c-1.9,0.1-3.8,0.1-5.7,0c-1.2-0.1-1.6,0.4-1.6,1.6c0,3.5,0,7,0.1,10.4
		c0,1.5-0.5,2-2,2c-5.1-0.1-10.1-0.1-15.2,0c-1.4,0-1.9-0.5-1.9-1.9c0-8.3,0-16.5,0-24.8c0-0.7,0.3-1.2,0.8-1.7
		c7.2-6,14.4-11.9,21.5-17.9c0.9-0.8,1.6-0.8,2.6,0c6.9,5.8,13.9,11.7,20.9,17.4c1,0.8,1.4,1.6,1.4,2.9
		C55.4,31.7,55.5,35.7,55.5,39.7z M10.2,39.2c0,3.6,0.1,7.2,0,10.8c0,1.4,0.4,1.9,1.8,1.9c4-0.1,7.9-0.1,11.9,0
		c1.4,0,1.6-0.5,1.6-1.7c-0.1-3.4,0-6.8,0-10.3c0-1.5,0.4-2.1,1.9-2.1c3,0.1,6.1,0.1,9.1,0c1.5,0,1.9,0.6,1.8,2c-0.1,3.5,0,7,0,10.4
		c0,1.2,0.2,1.7,1.5,1.6c4.1-0.1,8.3-0.1,12.4,0c1.1,0,1.4-0.4,1.4-1.4c0-7.4,0-14.9,0-22.3c0-0.8-0.3-1.3-0.8-1.8
		c-6.6-5.5-13.3-11-19.9-16.6c-0.7-0.6-1.3-0.6-2,0c-6.6,5.5-13.1,11-19.7,16.5c-0.7,0.6-1,1.2-1,2.1C10.2,31.9,10.2,35.6,10.2,39.2
		z"/>
	<path class="st3" d="M13.9,6.1c3.8,0,3.8,0,3.8,3.8c0,0.3,0,0.5,0,0.8c0,0.3-0.1,0.7,0.3,0.9c0.4,0.2,0.6-0.2,0.8-0.4
		C21.4,9,24,6.8,26.7,4.5c1.2-1,2.4-1.9,3.5-2.9c1.1-1,2-1,3.3,0c4.9,3.9,9.6,8.1,14.4,12.2c4.6,4,9.1,8,13.7,12.1
		c0.5,0.5,1.5,0.9,0.7,1.8c-0.7,0.7-1.4,0.1-2-0.4C51.5,19.7,42.8,12.1,34,4.5c-0.3-0.2-0.6-0.4-0.9-0.7c-0.8-0.8-1.4-0.8-2.3,0
		c-5.8,5-11.6,10-17.4,15c-3.3,2.8-6.6,5.7-9.9,8.5c-0.6,0.5-1.2,1.3-1.9,0.4c-0.7-0.8,0.2-1.4,0.7-1.9c2.2-2,4.4-4,6.7-5.9
		c0.8-0.7,1.1-1.4,1.1-2.4c-0.1-3.2,0-6.4-0.1-9.6c-0.1-1.4,0.4-2,1.8-1.8C12.4,6.2,13.2,6.1,13.9,6.1z M11.8,12.5
		C11.8,12.5,11.8,12.5,11.8,12.5c0,1.2,0,2.4,0,3.6c0,0.3-0.1,0.8,0.5,0.8c0.6-0.1,3.4-2.9,3.4-3.5c0-1.4,0-2.8,0-4.2
		c0-0.5-0.1-0.9-0.7-1.1c-2.3-0.6-3.2,0.1-3.2,2.4C11.8,11.1,11.8,11.8,11.8,12.5z"/>
</g>
</svg>
